<mxfile host="app.diagrams.net" agent="Mozilla/5.0 (Macintosh; Intel Mac OS X 10_15_7) AppleWebKit/537.36 (KHTML, like Gecko) Chrome/127.0.0.0 Safari/537.36 OPR/113.0.0.0" version="24.7.17">
  <diagram id="C5RBs43oDa-KdzZeNtuy" name="Page-1">
    <mxGraphModel dx="358" dy="244" grid="1" gridSize="10" guides="1" tooltips="1" connect="1" arrows="1" fold="1" page="1" pageScale="1" pageWidth="827" pageHeight="1169" math="0" shadow="0">
      <root>
        <mxCell id="WIyWlLk6GJQsqaUBKTNV-0" />
        <mxCell id="WIyWlLk6GJQsqaUBKTNV-1" parent="WIyWlLk6GJQsqaUBKTNV-0" />
        <mxCell id="PMfPOPO3gQjZuGeeF7Oa-0" value="Voltage Sweep" style="swimlane;startSize=30;strokeWidth=2;" parent="WIyWlLk6GJQsqaUBKTNV-1" vertex="1">
          <mxGeometry x="19" y="70" width="200" height="440" as="geometry" />
        </mxCell>
        <mxCell id="PMfPOPO3gQjZuGeeF7Oa-20" value="" style="edgeStyle=orthogonalEdgeStyle;rounded=0;orthogonalLoop=1;jettySize=auto;html=1;" parent="PMfPOPO3gQjZuGeeF7Oa-0" source="PMfPOPO3gQjZuGeeF7Oa-18" target="PMfPOPO3gQjZuGeeF7Oa-19" edge="1">
          <mxGeometry relative="1" as="geometry" />
        </mxCell>
        <mxCell id="PMfPOPO3gQjZuGeeF7Oa-18" value="Set R1 resistor" style="shape=process;whiteSpace=wrap;html=1;backgroundOutline=1;" parent="PMfPOPO3gQjZuGeeF7Oa-0" vertex="1">
          <mxGeometry x="10" y="42" width="150" height="38" as="geometry" />
        </mxCell>
        <mxCell id="PMfPOPO3gQjZuGeeF7Oa-22" value="" style="edgeStyle=orthogonalEdgeStyle;rounded=0;orthogonalLoop=1;jettySize=auto;html=1;" parent="PMfPOPO3gQjZuGeeF7Oa-0" source="PMfPOPO3gQjZuGeeF7Oa-19" target="PMfPOPO3gQjZuGeeF7Oa-21" edge="1">
          <mxGeometry relative="1" as="geometry" />
        </mxCell>
        <mxCell id="PMfPOPO3gQjZuGeeF7Oa-19" value="Set DAC voltage" style="shape=process;whiteSpace=wrap;html=1;backgroundOutline=1;" parent="PMfPOPO3gQjZuGeeF7Oa-0" vertex="1">
          <mxGeometry x="10" y="102" width="150" height="38" as="geometry" />
        </mxCell>
        <mxCell id="PMfPOPO3gQjZuGeeF7Oa-24" value="" style="edgeStyle=orthogonalEdgeStyle;rounded=0;orthogonalLoop=1;jettySize=auto;html=1;" parent="PMfPOPO3gQjZuGeeF7Oa-0" source="PMfPOPO3gQjZuGeeF7Oa-21" target="PMfPOPO3gQjZuGeeF7Oa-23" edge="1">
          <mxGeometry relative="1" as="geometry" />
        </mxCell>
        <mxCell id="PMfPOPO3gQjZuGeeF7Oa-21" value="Measure DAC voltage" style="shape=process;whiteSpace=wrap;html=1;backgroundOutline=1;" parent="PMfPOPO3gQjZuGeeF7Oa-0" vertex="1">
          <mxGeometry x="10" y="162" width="150" height="38" as="geometry" />
        </mxCell>
        <mxCell id="PMfPOPO3gQjZuGeeF7Oa-28" value="" style="edgeStyle=orthogonalEdgeStyle;rounded=0;orthogonalLoop=1;jettySize=auto;html=1;" parent="PMfPOPO3gQjZuGeeF7Oa-0" source="PMfPOPO3gQjZuGeeF7Oa-23" target="PMfPOPO3gQjZuGeeF7Oa-27" edge="1">
          <mxGeometry relative="1" as="geometry" />
        </mxCell>
        <mxCell id="PMfPOPO3gQjZuGeeF7Oa-23" value="Measuring calibration resistor voltage" style="shape=process;whiteSpace=wrap;html=1;backgroundOutline=1;" parent="PMfPOPO3gQjZuGeeF7Oa-0" vertex="1">
          <mxGeometry x="10" y="220" width="150" height="48" as="geometry" />
        </mxCell>
        <mxCell id="PMfPOPO3gQjZuGeeF7Oa-35" value="" style="edgeStyle=orthogonalEdgeStyle;rounded=0;orthogonalLoop=1;jettySize=auto;html=1;" parent="PMfPOPO3gQjZuGeeF7Oa-0" source="PMfPOPO3gQjZuGeeF7Oa-27" target="PMfPOPO3gQjZuGeeF7Oa-34" edge="1">
          <mxGeometry relative="1" as="geometry" />
        </mxCell>
        <mxCell id="PMfPOPO3gQjZuGeeF7Oa-27" value="Measure electrode voltage bidirectionally" style="shape=process;whiteSpace=wrap;html=1;backgroundOutline=1;" parent="PMfPOPO3gQjZuGeeF7Oa-0" vertex="1">
          <mxGeometry x="10" y="290" width="150" height="50" as="geometry" />
        </mxCell>
        <mxCell id="PMfPOPO3gQjZuGeeF7Oa-36" style="edgeStyle=orthogonalEdgeStyle;rounded=0;orthogonalLoop=1;jettySize=auto;html=1;entryX=1;entryY=0.5;entryDx=0;entryDy=0;" parent="PMfPOPO3gQjZuGeeF7Oa-0" source="PMfPOPO3gQjZuGeeF7Oa-34" target="PMfPOPO3gQjZuGeeF7Oa-19" edge="1">
          <mxGeometry relative="1" as="geometry">
            <Array as="points">
              <mxPoint x="180" y="395" />
              <mxPoint x="180" y="121" />
            </Array>
          </mxGeometry>
        </mxCell>
        <mxCell id="PMfPOPO3gQjZuGeeF7Oa-34" value="Loop from min&amp;nbsp;&lt;div&gt;&lt;span style=&quot;background-color: initial;&quot;&gt;to&amp;nbsp;&lt;/span&gt;&lt;span style=&quot;background-color: initial;&quot;&gt;max&amp;nbsp;&lt;/span&gt;&lt;span style=&quot;background-color: initial;&quot;&gt;voltage&lt;/span&gt;&lt;/div&gt;" style="rhombus;whiteSpace=wrap;html=1;" parent="PMfPOPO3gQjZuGeeF7Oa-0" vertex="1">
          <mxGeometry x="10" y="360" width="150" height="70" as="geometry" />
        </mxCell>
        <mxCell id="PMfPOPO3gQjZuGeeF7Oa-3" value="Conductivity Calculation" style="swimlane;startSize=30;strokeWidth=2;" parent="WIyWlLk6GJQsqaUBKTNV-1" vertex="1">
          <mxGeometry x="250" y="70" width="160" height="180" as="geometry" />
        </mxCell>
        <mxCell id="PMfPOPO3gQjZuGeeF7Oa-46" value="Map voltage samples to a conductivity" style="shape=process;whiteSpace=wrap;html=1;backgroundOutline=1;" parent="PMfPOPO3gQjZuGeeF7Oa-3" vertex="1">
          <mxGeometry x="20" y="50" width="120" height="60" as="geometry" />
        </mxCell>
        <mxCell id="yiu7RRGRQZf0xA6oIScl-0" value="To be investigated" style="whiteSpace=wrap;html=1;" vertex="1" parent="PMfPOPO3gQjZuGeeF7Oa-3">
          <mxGeometry x="20" y="130" width="120" height="30" as="geometry" />
        </mxCell>
        <mxCell id="PMfPOPO3gQjZuGeeF7Oa-12" value="Temperature Measurement" style="swimlane;startSize=30;strokeWidth=2;" parent="WIyWlLk6GJQsqaUBKTNV-1" vertex="1">
          <mxGeometry x="250" y="280" width="160" height="260" as="geometry">
            <mxRectangle x="470" y="20" width="180" height="30" as="alternateBounds" />
          </mxGeometry>
        </mxCell>
        <mxCell id="PMfPOPO3gQjZuGeeF7Oa-56" value="" style="edgeStyle=orthogonalEdgeStyle;rounded=0;orthogonalLoop=1;jettySize=auto;html=1;" parent="PMfPOPO3gQjZuGeeF7Oa-12" source="PMfPOPO3gQjZuGeeF7Oa-54" target="PMfPOPO3gQjZuGeeF7Oa-55" edge="1">
          <mxGeometry relative="1" as="geometry" />
        </mxCell>
        <mxCell id="PMfPOPO3gQjZuGeeF7Oa-54" value="Request temperature measurement" style="shape=process;whiteSpace=wrap;html=1;backgroundOutline=1;" parent="PMfPOPO3gQjZuGeeF7Oa-12" vertex="1">
          <mxGeometry x="20" y="42" width="120" height="60" as="geometry" />
        </mxCell>
        <mxCell id="PMfPOPO3gQjZuGeeF7Oa-58" value="" style="edgeStyle=orthogonalEdgeStyle;rounded=0;orthogonalLoop=1;jettySize=auto;html=1;" parent="PMfPOPO3gQjZuGeeF7Oa-12" source="PMfPOPO3gQjZuGeeF7Oa-55" target="PMfPOPO3gQjZuGeeF7Oa-57" edge="1">
          <mxGeometry relative="1" as="geometry" />
        </mxCell>
        <mxCell id="PMfPOPO3gQjZuGeeF7Oa-55" value="Wait for measurement" style="shape=process;whiteSpace=wrap;html=1;backgroundOutline=1;" parent="PMfPOPO3gQjZuGeeF7Oa-12" vertex="1">
          <mxGeometry x="20" y="120" width="120" height="50" as="geometry" />
        </mxCell>
        <mxCell id="PMfPOPO3gQjZuGeeF7Oa-57" value="Read value and convert to double" style="shape=process;whiteSpace=wrap;html=1;backgroundOutline=1;" parent="PMfPOPO3gQjZuGeeF7Oa-12" vertex="1">
          <mxGeometry x="20" y="190" width="120" height="50" as="geometry" />
        </mxCell>
        <mxCell id="PMfPOPO3gQjZuGeeF7Oa-16" value="Salinity Calculation" style="swimlane;startSize=30;strokeWidth=2;" parent="WIyWlLk6GJQsqaUBKTNV-1" vertex="1">
          <mxGeometry x="640" y="70" width="150" height="440" as="geometry" />
        </mxCell>
        <mxCell id="PMfPOPO3gQjZuGeeF7Oa-73" value="" style="edgeStyle=orthogonalEdgeStyle;rounded=0;orthogonalLoop=1;jettySize=auto;html=1;" parent="PMfPOPO3gQjZuGeeF7Oa-16" source="PMfPOPO3gQjZuGeeF7Oa-71" target="PMfPOPO3gQjZuGeeF7Oa-72" edge="1">
          <mxGeometry relative="1" as="geometry" />
        </mxCell>
        <mxCell id="PMfPOPO3gQjZuGeeF7Oa-71" value="Calculate conductivity&amp;nbsp;&lt;span style=&quot;background-color: initial;&quot;&gt;ratio R&lt;/span&gt;" style="shape=process;whiteSpace=wrap;html=1;backgroundOutline=1;" parent="PMfPOPO3gQjZuGeeF7Oa-16" vertex="1">
          <mxGeometry x="10" y="42" width="130" height="60" as="geometry" />
        </mxCell>
        <mxCell id="PMfPOPO3gQjZuGeeF7Oa-75" value="" style="edgeStyle=orthogonalEdgeStyle;rounded=0;orthogonalLoop=1;jettySize=auto;html=1;" parent="PMfPOPO3gQjZuGeeF7Oa-16" source="PMfPOPO3gQjZuGeeF7Oa-72" target="PMfPOPO3gQjZuGeeF7Oa-74" edge="1">
          <mxGeometry relative="1" as="geometry" />
        </mxCell>
        <mxCell id="PMfPOPO3gQjZuGeeF7Oa-72" value="Calculate temperature ratio r&lt;span style=&quot;font-size: 10px;&quot;&gt;&lt;sub&gt;t&lt;/sub&gt;&lt;/span&gt;" style="shape=process;whiteSpace=wrap;html=1;backgroundOutline=1;" parent="PMfPOPO3gQjZuGeeF7Oa-16" vertex="1">
          <mxGeometry x="10" y="120" width="130" height="60" as="geometry" />
        </mxCell>
        <mxCell id="PMfPOPO3gQjZuGeeF7Oa-77" value="" style="edgeStyle=orthogonalEdgeStyle;rounded=0;orthogonalLoop=1;jettySize=auto;html=1;" parent="PMfPOPO3gQjZuGeeF7Oa-16" source="PMfPOPO3gQjZuGeeF7Oa-74" target="PMfPOPO3gQjZuGeeF7Oa-76" edge="1">
          <mxGeometry relative="1" as="geometry" />
        </mxCell>
        <mxCell id="PMfPOPO3gQjZuGeeF7Oa-74" value="Calculate pressure ratio R&lt;sub&gt;p&lt;/sub&gt;" style="shape=process;whiteSpace=wrap;html=1;backgroundOutline=1;" parent="PMfPOPO3gQjZuGeeF7Oa-16" vertex="1">
          <mxGeometry x="10" y="200" width="130" height="60" as="geometry" />
        </mxCell>
        <mxCell id="PMfPOPO3gQjZuGeeF7Oa-79" value="" style="edgeStyle=orthogonalEdgeStyle;rounded=0;orthogonalLoop=1;jettySize=auto;html=1;" parent="PMfPOPO3gQjZuGeeF7Oa-16" source="PMfPOPO3gQjZuGeeF7Oa-76" target="PMfPOPO3gQjZuGeeF7Oa-78" edge="1">
          <mxGeometry relative="1" as="geometry" />
        </mxCell>
        <mxCell id="PMfPOPO3gQjZuGeeF7Oa-76" value="Calculate corrected ratio R&lt;span style=&quot;font-size: 10px;&quot;&gt;&lt;sub&gt;t&lt;/sub&gt;&lt;/span&gt;" style="shape=process;whiteSpace=wrap;html=1;backgroundOutline=1;" parent="PMfPOPO3gQjZuGeeF7Oa-16" vertex="1">
          <mxGeometry x="10" y="280" width="130" height="60" as="geometry" />
        </mxCell>
        <mxCell id="PMfPOPO3gQjZuGeeF7Oa-78" value="Calculate salinity" style="shape=process;whiteSpace=wrap;html=1;backgroundOutline=1;" parent="PMfPOPO3gQjZuGeeF7Oa-16" vertex="1">
          <mxGeometry x="10" y="360" width="130" height="60" as="geometry" />
        </mxCell>
        <mxCell id="PMfPOPO3gQjZuGeeF7Oa-59" value="" style="edgeStyle=orthogonalEdgeStyle;rounded=0;orthogonalLoop=1;jettySize=auto;html=1;fillColor=#0050ef;strokeColor=#001DBC;strokeWidth=2;exitX=1.002;exitY=0.041;exitDx=0;exitDy=0;exitPerimeter=0;" parent="WIyWlLk6GJQsqaUBKTNV-1" source="PMfPOPO3gQjZuGeeF7Oa-0" edge="1">
          <mxGeometry relative="1" as="geometry">
            <mxPoint x="146.0000000000001" y="347.9999999999999" as="sourcePoint" />
            <mxPoint x="250" y="88" as="targetPoint" />
            <Array as="points">
              <mxPoint x="250" y="88" />
              <mxPoint x="250" y="88" />
            </Array>
          </mxGeometry>
        </mxCell>
        <mxCell id="PMfPOPO3gQjZuGeeF7Oa-62" value="Pressure Measurement" style="swimlane;startSize=30;strokeWidth=2;" parent="WIyWlLk6GJQsqaUBKTNV-1" vertex="1">
          <mxGeometry x="450" y="70" width="160" height="260" as="geometry" />
        </mxCell>
        <mxCell id="PMfPOPO3gQjZuGeeF7Oa-63" value="" style="edgeStyle=orthogonalEdgeStyle;rounded=0;orthogonalLoop=1;jettySize=auto;html=1;" parent="PMfPOPO3gQjZuGeeF7Oa-62" source="PMfPOPO3gQjZuGeeF7Oa-64" target="PMfPOPO3gQjZuGeeF7Oa-66" edge="1">
          <mxGeometry relative="1" as="geometry" />
        </mxCell>
        <mxCell id="PMfPOPO3gQjZuGeeF7Oa-64" value="Request pressure measurement" style="shape=process;whiteSpace=wrap;html=1;backgroundOutline=1;" parent="PMfPOPO3gQjZuGeeF7Oa-62" vertex="1">
          <mxGeometry x="20" y="42" width="120" height="60" as="geometry" />
        </mxCell>
        <mxCell id="PMfPOPO3gQjZuGeeF7Oa-65" value="" style="edgeStyle=orthogonalEdgeStyle;rounded=0;orthogonalLoop=1;jettySize=auto;html=1;" parent="PMfPOPO3gQjZuGeeF7Oa-62" source="PMfPOPO3gQjZuGeeF7Oa-66" target="PMfPOPO3gQjZuGeeF7Oa-67" edge="1">
          <mxGeometry relative="1" as="geometry" />
        </mxCell>
        <mxCell id="PMfPOPO3gQjZuGeeF7Oa-66" value="Wait for measurement" style="shape=process;whiteSpace=wrap;html=1;backgroundOutline=1;" parent="PMfPOPO3gQjZuGeeF7Oa-62" vertex="1">
          <mxGeometry x="20" y="120" width="120" height="50" as="geometry" />
        </mxCell>
        <mxCell id="PMfPOPO3gQjZuGeeF7Oa-67" value="Read value and convert to decibars" style="shape=process;whiteSpace=wrap;html=1;backgroundOutline=1;" parent="PMfPOPO3gQjZuGeeF7Oa-62" vertex="1">
          <mxGeometry x="20" y="190" width="120" height="50" as="geometry" />
        </mxCell>
        <mxCell id="PMfPOPO3gQjZuGeeF7Oa-69" style="edgeStyle=orthogonalEdgeStyle;rounded=0;orthogonalLoop=1;jettySize=auto;html=1;entryX=-0.01;entryY=0.062;entryDx=0;entryDy=0;strokeColor=#0000FF;strokeWidth=2;exitX=0.999;exitY=0.057;exitDx=0;exitDy=0;exitPerimeter=0;entryPerimeter=0;" parent="WIyWlLk6GJQsqaUBKTNV-1" source="PMfPOPO3gQjZuGeeF7Oa-12" target="PMfPOPO3gQjZuGeeF7Oa-62" edge="1">
          <mxGeometry relative="1" as="geometry">
            <Array as="points">
              <mxPoint x="412" y="295" />
              <mxPoint x="430" y="295" />
              <mxPoint x="430" y="86" />
            </Array>
          </mxGeometry>
        </mxCell>
        <mxCell id="PMfPOPO3gQjZuGeeF7Oa-86" value="" style="edgeStyle=orthogonalEdgeStyle;rounded=0;orthogonalLoop=1;jettySize=auto;html=1;strokeWidth=2;strokeColor=#0000ff;" parent="WIyWlLk6GJQsqaUBKTNV-1" source="PMfPOPO3gQjZuGeeF7Oa-80" target="PMfPOPO3gQjZuGeeF7Oa-0" edge="1">
          <mxGeometry relative="1" as="geometry" />
        </mxCell>
        <mxCell id="PMfPOPO3gQjZuGeeF7Oa-80" value="Start" style="ellipse;whiteSpace=wrap;html=1;" parent="WIyWlLk6GJQsqaUBKTNV-1" vertex="1">
          <mxGeometry x="74" y="20" width="90" height="30" as="geometry" />
        </mxCell>
        <mxCell id="PMfPOPO3gQjZuGeeF7Oa-84" value="End" style="ellipse;whiteSpace=wrap;html=1;" parent="WIyWlLk6GJQsqaUBKTNV-1" vertex="1">
          <mxGeometry x="670" y="550" width="90" height="30" as="geometry" />
        </mxCell>
        <mxCell id="PMfPOPO3gQjZuGeeF7Oa-85" style="edgeStyle=orthogonalEdgeStyle;rounded=0;orthogonalLoop=1;jettySize=auto;html=1;entryX=0.5;entryY=0;entryDx=0;entryDy=0;strokeColor=#0000FF;strokeWidth=2;" parent="WIyWlLk6GJQsqaUBKTNV-1" edge="1">
          <mxGeometry relative="1" as="geometry">
            <mxPoint x="715.25" y="510" as="sourcePoint" />
            <Array as="points">
              <mxPoint x="714.75" y="510" />
            </Array>
            <mxPoint x="714.75" y="550" as="targetPoint" />
          </mxGeometry>
        </mxCell>
        <mxCell id="PMfPOPO3gQjZuGeeF7Oa-91" style="edgeStyle=orthogonalEdgeStyle;rounded=0;orthogonalLoop=1;jettySize=auto;html=1;entryX=0.5;entryY=0;entryDx=0;entryDy=0;strokeWidth=2;strokeColor=#0000FF;exitX=0.5;exitY=1;exitDx=0;exitDy=0;" parent="WIyWlLk6GJQsqaUBKTNV-1" source="PMfPOPO3gQjZuGeeF7Oa-3" target="PMfPOPO3gQjZuGeeF7Oa-12" edge="1">
          <mxGeometry relative="1" as="geometry">
            <mxPoint x="449" y="230" as="targetPoint" />
            <mxPoint x="430" y="86" as="sourcePoint" />
            <Array as="points">
              <mxPoint x="330" y="270" />
              <mxPoint x="330" y="270" />
            </Array>
          </mxGeometry>
        </mxCell>
        <mxCell id="yiu7RRGRQZf0xA6oIScl-5" value="" style="edgeStyle=orthogonalEdgeStyle;rounded=0;orthogonalLoop=1;jettySize=auto;html=1;fillColor=#0050ef;strokeColor=#001DBC;strokeWidth=2;exitX=1.004;exitY=0.058;exitDx=0;exitDy=0;exitPerimeter=0;" edge="1" parent="WIyWlLk6GJQsqaUBKTNV-1" source="PMfPOPO3gQjZuGeeF7Oa-62">
          <mxGeometry relative="1" as="geometry">
            <mxPoint x="610" y="80" as="sourcePoint" />
            <mxPoint x="640" y="85" as="targetPoint" />
            <Array as="points">
              <mxPoint x="630" y="85" />
              <mxPoint x="630" y="85" />
            </Array>
          </mxGeometry>
        </mxCell>
      </root>
    </mxGraphModel>
  </diagram>
</mxfile>
